<?xml version="1.0" encoding="utf-8"?><!-- Uploaded to: SVG Repo, www.svgrepo.com, Generator: SVG Repo Mixer Tools -->
<svg fill="#000000" width="800px" height="800px" viewBox="0 0 24 24" id="sun-cloudy" data-name="Line Color" xmlns="http://www.w3.org/2000/svg" class="icon line-color"><path id="secondary" d="M7.75,13.72a3,3,0,1,1,4.18-3.38" style="fill: none; stroke: rgb(44, 169, 188); stroke-linecap: round; stroke-linejoin: round; stroke-width: 2;"></path><path id="secondary-2" data-name="secondary" d="M9,4V3M4.05,6.05l-.71-.71M14,6.05l.71-.71" style="fill: none; stroke: rgb(44, 169, 188); stroke-linecap: round; stroke-linejoin: round; stroke-width: 2;"></path><path id="primary" d="M17.67,11.8a2.76,2.76,0,0,0-.77.11A4.1,4.1,0,0,0,13.5,10a4.27,4.27,0,0,0-4.1,3.79,2.27,2.27,0,0,0-.9-.19A2.61,2.61,0,0,0,6,16.3,2.61,2.61,0,0,0,8.5,19h9.17A3.47,3.47,0,0,0,21,15.4,3.47,3.47,0,0,0,17.67,11.8Z" style="fill: none; stroke: rgb(0, 0, 0); stroke-linecap: round; stroke-linejoin: round; stroke-width: 2;"></path></svg>